<?xml version="1.0" standalone="no"?>
<!DOCTYPE svg PUBLIC "-//W3C//DTD SVG 20010904//EN"
 "http://www.w3.org/TR/2001/REC-SVG-20010904/DTD/svg10.dtd">
<svg version="1.0" xmlns="http://www.w3.org/2000/svg"
 width="500.000000pt" height="500.000000pt" viewBox="0 0 500.000000 500.000000"
 preserveAspectRatio="xMidYMid meet">
<metadata>
Created by potrace 1.14, written by Peter Selinger 2001-2017
</metadata>
<g transform="translate(0.000000,500.000000) scale(0.100000,-0.100000)"
fill="#000000" stroke="none">
<path d="M1763 3727 c-9 -14 8 -61 33 -94 47 -62 55 -63 605 -60 l495 2 -50
-80 c-27 -44 -51 -82 -53 -84 -1 -2 -204 -3 -449 -3 -416 2 -449 1 -488 -17
-49 -21 -86 -68 -93 -115 l-4 -33 456 0 c250 0 458 -2 461 -5 2 -3 -179 -300
-404 -659 -225 -360 -419 -673 -430 -696 -40 -77 -44 -191 -11 -270 l14 -32
575 920 c316 506 583 944 593 972 27 74 23 184 -6 240 l-12 22 -613 0 c-338 0
-616 -4 -619 -8z"/>
<path d="M2578 2487 c-316 -507 -583 -944 -592 -972 -20 -59 -19 -163 2 -217
l15 -38 620 0 620 0 -6 37 c-8 46 -34 82 -78 108 -33 19 -52 20 -541 20 -505
0 -507 0 -494 20 7 11 30 48 51 83 l38 62 450 0 c430 0 453 1 492 20 46 22 89
85 83 123 l-3 22 -452 0 c-295 0 -453 3 -453 10 0 10 147 248 581 940 121 193
230 371 244 396 26 50 42 125 39 179 -3 44 -22 117 -32 124 -4 2 -267 -410
-584 -917z"/>
</g>
</svg>
